<svg xmlns="http://www.w3.org/2000/svg" width="675" height="244"><g fill="#FFF" fill-rule="evenodd"><path d="M205.3817 178.8387c-14.2773 0-27.4578-19.0379-27.4578-55.5197 0-36.8784 13.1805-55.5188 27.4578-55.5188 14.2773 0 27.4545 18.6404 27.4545 55.5188 0 36.8792-13.1772 55.5197-27.4545 55.5197m0-125.0337c-39.1559 0-68.7192 29.0293-68.7192 69.514 0 40.219 29.5633 69.5182 68.7192 69.5182 39.1534 0 68.7167-29.2993 68.7167-69.5182 0-40.4847-29.5633-69.514-68.7167-69.514M22.7857 0H0v8.6675c16.8708 2.9506 22.7857 7.045 22.7857 40.0981v97.969c0 33.0532-5.9149 30.4874-22.7857 33.4389v8.6674h93.9156v-8.6674c-16.87-2.9515-34.1072-.3857-34.1072-33.439l-.0638.1904-.073-48.0697c43.377.0076 44.0973 20.3468 46.7377 35.4379h7.3353V50.5524h-7.3353c-2.6413 15.0937-3.3607 35.4379-46.757 35.4387l-.1106-71.9959h13.8228c36.16 0 60.6813 4.3903 66.7387 39.0199h8.6685V0H22.7857zM373.6273 53.935c-22.2456 0-34.7184 15.5951-42.384 27.302V57.798H274.0987v8.6674c16.87 2.9515 22.7848 7.0458 22.7848 40.099v40.1703c0 33.0532-5.9148 30.4874-22.7848 33.439v8.6674H361.0891v-8.6675c-16.87-2.9515-28.7785-.3857-28.7785-33.4389V108.82c0-19.1662 7.9332-30.2761 17.9877-30.2761 10.125 0 11.444 18.2454 27.5794 18.2454 13.0992 0 19.9205-7.642 20.8202-19.426 1.1848-15.512-7.1684-23.4282-25.0706-23.4282M498.3359 119.324c0-20.2402-13.8497-33.0263-30.8966-33.0263-17.5801 0-31.4298 12.786-31.4298 33.0263 0 20.5095 13.0497 33.2956 31.4298 33.2956 18.1135 0 30.8966-13.0528 30.8966-33.2956zm-66.056 68.1842c2.3997 14.3834 13.8496 24.7723 30.6332 24.7723 22.373 0 34.8895-11.1863 34.8895-36.4885v-9.5898c-5.3262 8.5233-17.5802 16.7799-36.4894 16.7799-34.8937 0-60.9932-26.8996-60.9932-63.658 0-34.6229 25.0362-63.9213 60.9932-63.9213 20.7766 0 32.763 9.0556 37.2893 17.8463v-15.45h34.0938v116.9264c0 35.9552-19.4433 68.714-68.72 68.714-35.9561 0-59.9291-22.3683-63.6563-47.408l31.9598-8.5233zM639.7647 108.404c-.5332-13.0494-9.0567-25.8355-29.3-25.8355-18.3793 0-28.5 13.8527-29.3 25.8355h58.6zm33.0264 42.8828c-6.6603 22.6392-27.4335 41.5513-59.6633 41.5513-35.9561 0-67.6526-25.8355-67.6526-70.0515 0-41.8154 30.8957-68.9807 64.4562-68.9807 40.4866 0 64.7229 25.832 64.7229 67.9183 0 5.0595-.53 10.3855-.53 10.9188h-93.7562c.7966 17.3131 15.447 29.8292 33.0272 29.8292 16.5128 0 25.5695-8.2557 29.8291-19.9761l29.5667 8.7907z"/></g></svg>